<svg width="86" height="34" viewBox="0 0 86 34" fill="none" xmlns="http://www.w3.org/2000/svg">
<path d="M20.1906 3.39953L6.72942 17L10.0941 20.3995L13.4612 23.7991L20.1906 30.5981L16.8259 34L13.4612 30.5981L10.0941 27.1986L0 17L3.36471 13.6005L6.72942 10.1986L10.0941 6.79906L13.4612 3.39953L16.8259 0L20.1906 3.39953ZM79.2683 10.1986L82.633 13.6005L86 17L82.633 20.3995L72.5388 30.5981L69.1741 34L65.8094 30.5981L79.2683 17L75.9035 13.6005L72.5388 10.1986L65.8094 3.39953L69.1741 0L79.2683 10.1986ZM52.3482 24.2123H57.1072V29.0204H33.3125V14.5959H47.5893V9.78774H33.3125V4.97956H52.3482V24.2123ZM38.0714 24.2123H47.5893V19.4041H38.0714V24.2123Z" fill="#333333"/>
</svg>
