<svg width="32" height="32" viewBox="0 0 32 32" fill="none" xmlns="http://www.w3.org/2000/svg">
<path d="M7.51278 11.2998L2.50397 16.5L3.75596 17.7998L5.00881 19.0996L7.51278 21.6993L6.26079 23L5.00881 21.6993L3.75596 20.3995L0 16.5L1.25199 15.2002L2.50397 13.8995L3.75596 12.5996L5.00881 11.2998L6.26079 10L7.51278 11.2998ZM29.4952 13.8995L30.7471 15.2002L32 16.5L30.7471 17.7998L26.9912 21.6993L25.7392 23L24.4872 21.6993L29.4952 16.5L28.2432 15.2002L26.9912 13.8995L24.4872 11.2998L25.7392 10L29.4952 13.8995ZM19.4784 19.2576H21.2492V21.0961H12.3954V15.5808H17.7076V13.7424H12.3954V11.9039H19.4784V19.2576ZM14.1661 19.2576H17.7076V17.4192H14.1661V19.2576Z" fill="#333333"/>
</svg>
